<?xml version="1.0" encoding="UTF-8" standalone="no"?>
<!DOCTYPE svg PUBLIC "-//W3C//DTD SVG 1.1//EN" "http://www.w3.org/Graphics/SVG/1.1/DTD/svg11.dtd">
<svg xmlns="http://www.w3.org/2000/svg" xmlns:xlink="http://www.w3.org/1999/xlink" version="1.1" width="878.736pt" height="623.626pt" viewBox="0 0 878.736 623.626">
<g enable-background="new">
<g id="Layer-1" data-name="Layer 1">
<path transform="matrix(1,0,0,-1,0,623.626)" d="M 129.87 290.154 L 140.828 290.154 L 140.828 366.858 L 129.87 366.858 Z " fill="#daddde"/>
<path transform="matrix(1,0,0,-1,0,623.626)" d="M 127.13 282.545 L 143.567 282.545 L 143.567 286.502 L 127.13 286.502 Z " fill="#daddde"/>
<path transform="matrix(1,0,0,-1,0,623.626)" d="M 126.217 273.413 L 144.48001 273.413 L 144.48001 278.587 L 126.217 278.587 Z " fill="#8c8d8f"/>
<path transform="matrix(1,0,0,-1,0,623.626)" d="M 123.173 259.904 L 147.524 259.904 L 147.524 269.15199 L 123.173 269.15199 Z " fill="#8c8d8f"/>
<path transform="matrix(1,0,0,-1,0,623.626)" d="M 143.567 373.649 L 127.130008 373.649 L 127.130008 369.692 L 143.567 369.692 Z " fill="#daddde"/>
<path transform="matrix(1,0,0,-1,0,623.626)" d="M 144.48 382.78 L 126.216999 382.78 L 126.216999 377.606 L 144.48 377.606 Z " fill="#8c8d8f"/>
<path transform="matrix(1,0,0,-1,0,623.626)" d="M 147.524 396.29 L 123.173007 396.29 L 123.173007 387.04203 L 147.524 387.04203 Z " fill="#8c8d8f"/>
<path transform="matrix(1,0,0,-1,0,623.626)" d="M 243.709 290.564 L 254.66699 290.564 L 254.66699 367.268 L 243.709 367.268 Z " fill="#daddde"/>
<path transform="matrix(1,0,0,-1,0,623.626)" d="M 240.969 282.954 L 257.406 282.954 L 257.406 286.911 L 240.969 286.911 Z " fill="#daddde"/>
<path transform="matrix(1,0,0,-1,0,623.626)" d="M 240.056 273.823 L 258.319 273.823 L 258.319 278.997 L 240.056 278.997 Z " fill="#8c8d8f"/>
<path transform="matrix(1,0,0,-1,0,623.626)" d="M 237.012 260.313 L 261.363 260.313 L 261.363 269.56098 L 237.012 269.56098 Z " fill="#8c8d8f"/>
<path transform="matrix(1,0,0,-1,0,623.626)" d="M 257.406 374.058 L 240.96901 374.058 L 240.96901 370.101 L 257.406 370.101 Z " fill="#daddde"/>
<path transform="matrix(1,0,0,-1,0,623.626)" d="M 258.319 383.19 L 240.056 383.19 L 240.056 378.016 L 258.319 378.016 Z " fill="#8c8d8f"/>
<path transform="matrix(1,0,0,-1,0,623.626)" d="M 261.363 396.699 L 237.01201 396.699 L 237.01201 387.45103 L 261.363 387.45103 Z " fill="#8c8d8f"/>
<path transform="matrix(1,0,0,-1,167.2325,310.33888)" d="M 0 0 L 0 9.74 L -16.437 24.655 L -16.437 0 Z " fill="#daddde"/>
<path transform="matrix(1,0,0,-1,169.972,290.24958)" d="M 0 0 L 6.088 11.262 L -8.218 30.438 L -17.35 15.219 Z " fill="#daddde"/>
<path transform="matrix(1,0,0,-1,181.2341,269.55158)" d="M 0 0 L -5.174 28.916 L -14.002 16.741 Z " fill="#daddde"/>
<path transform="matrix(1,0,0,-1,218.9775,309.88227)" d="M 0 0 L 0 9.74 L 16.437 24.655 L 16.437 0 Z " fill="#daddde"/>
<path transform="matrix(1,0,0,-1,216.2381,289.7931)" d="M 0 0 L -6.088 11.262 L 8.218 30.438 L 17.35 15.219 Z " fill="#daddde"/>
<path transform="matrix(1,0,0,-1,204.9759,269.09507)" d="M 0 0 L 5.174 28.916 L 14.002 16.741 Z " fill="#daddde"/>
<path transform="matrix(1,0,0,-1,203.454,234.85208)" d="M 0 0 L -20.394 0 L -14.915 -46.875 L -4.87 -46.875 Z " fill="#3d6676"/>
<clipPath id="cp0">
<path transform="matrix(1,0,0,-1,0,623.626)" d="M 0 623.626 L 878.736 623.626 L 878.736 0 L 0 0 Z "/>
</clipPath>
<g clip-path="url(#cp0)">
<path transform="matrix(1,0,0,-1,316.7189,245.27649)" d="M 0 0 L 3.834 0 L 3.834 12.843 L 7.284 14.158 L 7.284 0 L 11.036 0 L 11.036 -3.724 L -7.722 -3.724 C -10.516 -8.453 -15.372 -10.287 -22.291 -9.229 C -27.02 -8.17 -29.52 -5.157 -29.794 -.192 C -29.575 4.062 -27.22 7.01 -22.729 8.653 L -22.291 8.79 L -20.73 5.34 C -24.29 4.938 -26.043 2.784 -25.988 -1.123 C -25.057 -4.683 -22.273 -6.134 -17.636 -5.477 C -14.879 -5.094 -12.597 -3.697 -10.79 -1.287 L -10.571 0 L -10.571 12.843 L -7.12 14.158 L -7.12 0 L -3.45 0 L -3.45 12.843 L 0 14.158 Z " fill="#8c8d8f"/>
<path transform="matrix(1,0,0,-1,0,623.626)" d="M 351.305 374.625 L 326.55 374.625 L 326.55 378.349 L 351.305 378.349 Z " fill="#8c8d8f"/>
<path transform="matrix(1,0,0,-1,0,623.626)" d="M 375.43 374.625 L 350.675 374.625 L 350.675 378.349 L 375.43 378.349 Z " fill="#8c8d8f"/>
<path transform="matrix(1,0,0,-1,374.6639,249.00077)" d="M 0 0 L 0 3.724 L 4.491 3.724 L 4.491 27.165 L 7.941 27.165 L 7.941 0 Z " fill="#8c8d8f"/>
<path transform="matrix(1,0,0,-1,0,623.626)" d="M 412.946 374.625 L 404.54 374.625 L 404.54 378.349 L 412.946 378.349 Z M 398.269 394.095 C 406.21 393.548 410.31 389.477 410.565 381.882 C 410.345 379.089 408.967 376.742 406.429 374.844 C 405.225 374.625 403.81 374.552 402.185 374.625 L 387.808 374.625 L 385.974 378.35 L 404.047 378.35 C 405.033 378.495 405.781 378.997 406.293 379.855 C 407.808 387.012 404.814 390.453 397.311 390.18 C 393.587 389.175 391.186 386.72 390.108 382.813 L 386.385 382.813 C 387.48 389.458 391.441 393.219 398.269 394.095 " fill="#8c8d8f"/>
<path transform="matrix(1,0,0,-1,0,623.626)" d="M 436.743 374.625 L 411.988 374.625 L 411.988 378.349 L 436.743 378.349 Z " fill="#8c8d8f"/>
<path transform="matrix(1,0,0,-1,441.3024,230.58499)" d="M 0 0 C .428 -.448 .936 -.671 1.519 -.671 C 2.122 -.671 2.633 -.448 3.054 0 C 3.473 .447 3.684 .99 3.684 1.63 C 3.684 2.287 3.482 2.829 3.081 3.259 C 2.678 3.688 2.186 3.903 1.602 3.903 C 1 3.903 .475 3.674 .027 3.218 C -.42 2.761 -.643 2.232 -.643 1.63 C -.643 .99 -.43 .447 0 0 M -5.217 -14.691 L -.068 -14.691 L -.068 -4.587 L 3.655 -4.587 L 3.655 -18.416 L -5.217 -18.416 Z " fill="#8c8d8f"/>
<path transform="matrix(1,0,0,-1,454.5704,244.70169)" d="M 0 0 L -5.23 19.498 L -1.917 20.566 L 3.314 1.068 Z M -2.93 25.878 L -1.562 25.878 L -1.698 25.029 C -2.666 25.157 -3.378 24.929 -3.835 24.345 C -4.364 22.829 -3.569 22.291 -1.451 22.729 L -1.698 21.716 L -5.751 21.743 L -5.751 22.839 L -4.819 22.839 C -5.021 24.464 -4.391 25.476 -2.93 25.878 M 7.53 22.866 L 10.981 22.866 L 10.981 .739 C 10.871 -.027 10.286 -1.073 9.228 -2.396 C 8.17 -3.72 6.49 -4.7 4.19 -5.34 C .758 -6.143 -2.62 -5.157 -5.943 -2.382 L -3.587 -.027 C -.703 -2.401 1.934 -2.984 4.327 -1.78 C 6.426 -.648 7.494 .411 7.53 1.397 Z " fill="#8c8d8f"/>
<path transform="matrix(1,0,0,-1,0,623.626)" d="M 469.112 401.79 L 472.563 401.79 L 472.563 374.625 L 469.112 374.625 Z " fill="#8c8d8f"/>
<path transform="matrix(1,0,0,-1,499.289,234.18619)" d="M 0 0 L 4.902 0 L 4.463 -3.039 C .977 -2.602 -1.589 -3.432 -3.232 -5.531 C -5.112 -10.917 -2.263 -12.834 5.313 -11.282 L 4.463 -14.842 L -10.05 -14.842 L -10.022 -10.844 L -6.709 -10.844 C -7.422 -5.075 -5.185 -1.46 0 0 " fill="#8c8d8f"/>
<path transform="matrix(1,0,0,-1,507.12,249.00077)" d="M 0 0 L 0 27.165 L 3.451 27.165 L 3.451 3.724 L 7.941 3.724 L 7.941 0 Z " fill="#8c8d8f"/>
<path transform="matrix(1,0,0,-1,0,623.626)" d="M 539.324 374.625 L 514.569 374.625 L 514.569 378.349 L 539.324 378.349 Z " fill="#8c8d8f"/>
<path transform="matrix(1,0,0,-1,0,623.626)" d="M 563.45 374.625 L 538.695 374.625 L 538.695 378.349 L 563.45 378.349 Z " fill="#8c8d8f"/>
<path transform="matrix(1,0,0,-1,576.0322,225.29959)" d="M 0 0 C .43 -.448 .936 -.671 1.521 -.671 C 2.123 -.671 2.633 -.448 3.054 0 C 3.474 .447 3.684 .99 3.684 1.629 C 3.684 2.287 3.482 2.829 3.081 3.258 C 2.68 3.688 2.187 3.902 1.602 3.902 C 1 3.902 .475 3.673 .029 3.218 C -.419 2.761 -.643 2.232 -.643 1.629 C -.643 .99 -.428 .447 0 0 M -5.23 0 C -4.802 -.448 -4.294 -.671 -3.709 -.671 C -3.107 -.671 -2.597 -.448 -2.176 0 C -1.756 .447 -1.547 .99 -1.547 1.629 C -1.547 2.287 -1.748 2.829 -2.149 3.258 C -2.55 3.688 -3.044 3.902 -3.628 3.902 C -4.23 3.902 -4.755 3.673 -5.203 3.218 C -5.651 2.761 -5.874 2.232 -5.874 1.629 C -5.874 .99 -5.659 .447 -5.23 0 M 5.683 -19.977 C 5.865 -19.631 5.957 -19.247 5.957 -18.827 C 6.943 -11.104 4.579 -7.426 -1.136 -7.791 C -5.773 -7.554 -7.836 -11.26 -7.325 -18.909 C -7.269 -19.365 -7.16 -19.722 -6.996 -19.977 Z M -1.081 -4.423 C 6.422 -4.514 9.854 -9.316 9.216 -18.827 C 9.16 -19.192 9.069 -19.576 8.941 -19.977 L 11.954 -19.977 L 11.954 -23.701 L -13.404 -23.701 L -13.404 -19.977 L -10.201 -19.977 C -10.346 -19.867 -10.447 -19.493 -10.501 -18.854 C -10.867 -9.343 -7.726 -4.532 -1.081 -4.423 " fill="#8c8d8f"/>
<path transform="matrix(1,0,0,-1,0,623.626)" d="M 612.139 374.625 L 587.384 374.625 L 587.384 378.349 L 612.139 378.349 Z " fill="#8c8d8f"/>
<path transform="matrix(1,0,0,-1,617.9854,231.43369)" d="M 0 0 C .428 -.448 .936 -.671 1.519 -.671 C 2.122 -.671 2.633 -.448 3.054 0 C 3.473 .447 3.684 .99 3.684 1.63 C 3.684 2.287 3.482 2.829 3.081 3.258 C 2.68 3.688 2.186 3.902 1.602 3.902 C 1 3.902 .475 3.673 .027 3.218 C -.42 2.761 -.643 2.232 -.643 1.63 C -.643 .99 -.428 .447 0 0 M -5.23 0 C -4.802 -.448 -4.294 -.671 -3.711 -.671 C -3.108 -.671 -2.597 -.448 -2.176 0 C -1.757 .447 -1.547 .99 -1.547 1.63 C -1.547 2.287 -1.748 2.829 -2.149 3.258 C -2.552 3.688 -3.044 3.902 -3.628 3.902 C -4.23 3.902 -4.755 3.673 -5.203 3.218 C -5.651 2.761 -5.874 2.232 -5.874 1.63 C -5.874 .99 -5.66 .447 -5.23 0 M -6.503 -13.843 L -.26 -13.843 L -.26 -3.738 L 3.465 -3.738 L 3.465 -17.567 L -6.503 -17.567 Z " fill="#8c8d8f"/>
<path transform="matrix(1,0,0,-1,635.5803,249.00077)" d="M 0 0 C -1.479 -6.134 -6.016 -8.617 -13.611 -7.449 L -13.227 -3.971 C -10.069 -4.7 -7.773 -4.605 -6.34 -3.683 C -4.906 -2.761 -3.971 -1.534 -3.533 0 L -3.533 14.349 L 0 14.349 Z " fill="#8c8d8f"/>
<path transform="matrix(1,0,0,-1,0,623.626)" d="M 638.921 401.79 L 642.372 401.79 L 642.372 374.625 L 638.921 374.625 Z " fill="#8c8d8f"/>
<path transform="matrix(1,0,0,-1,671.9877,226.06687)" d="M 0 0 C .428 -.448 .936 -.671 1.519 -.671 C 2.122 -.671 2.633 -.448 3.054 0 C 3.473 .448 3.684 .99 3.684 1.63 C 3.684 2.287 3.482 2.83 3.081 3.259 C 2.678 3.688 2.186 3.903 1.602 3.903 C 1 3.903 .475 3.674 .027 3.218 C -.42 2.761 -.643 2.232 -.643 1.63 C -.643 .99 -.43 .448 0 0 M -5.23 0 C -4.802 -.448 -4.296 -.671 -3.711 -.671 C -3.108 -.671 -2.597 -.448 -2.178 0 C -1.758 .448 -1.548 .99 -1.548 1.63 C -1.548 2.287 -1.748 2.83 -2.149 3.259 C -2.552 3.688 -3.044 3.903 -3.629 3.903 C -4.23 3.903 -4.755 3.674 -5.203 3.218 C -5.651 2.761 -5.874 2.232 -5.874 1.63 C -5.874 .99 -5.66 .448 -5.23 0 M -1.93 -8.091 C -7.499 -8.768 -9.982 -11.734 -9.379 -16.992 C -8.923 -18.379 -7.964 -19.127 -6.503 -19.237 L 6.065 -19.237 C 6.395 -19.201 6.577 -18.963 6.614 -18.525 C 7.471 -11.898 4.624 -8.42 -1.93 -8.091 M 10.146 -5.271 L 10.146 -19.21 L 11.844 -19.21 L 11.844 -22.934 L -7.298 -22.961 C -10.348 -21.885 -12.191 -20.214 -12.83 -17.95 C -13.688 -13.003 -11.679 -9.014 -6.805 -5.983 C -2.205 -3.92 2.287 -4.532 6.668 -7.818 L 6.668 -5.271 Z " fill="#8c8d8f"/>
<path transform="matrix(1,0,0,-1,0,623.626)" d="M 707.93 374.625 L 683.175 374.625 L 683.175 378.349 L 707.93 378.349 Z " fill="#8c8d8f"/>
<path transform="matrix(1,0,0,-1,737.1211,221.72629)" d="M 0 0 L -.547 -4.409 L -17.225 -11.666 L -5.969 -11.666 C -3.267 -11.702 -1.25 -12.159 .083 -13.035 C 3.058 -15.317 3.779 -18.822 2.246 -23.55 C 1.351 -25.34 -.465 -26.581 -3.203 -27.275 L -30.04 -27.275 L -30.04 -23.55 L -5.093 -23.55 C -3.432 -23.55 -2.3 -23.286 -1.698 -22.756 C -1.095 -22.227 -.739 -21.328 -.63 -20.059 C -.52 -18.79 -.794 -17.763 -1.451 -16.978 C -2.108 -16.193 -2.843 -15.732 -3.655 -15.595 C -4.468 -15.458 -5.978 -15.4 -8.187 -15.417 L -20.018 -15.417 L -24.837 -15.417 C -26.244 -15.417 -27.106 -15.057 -27.426 -14.336 C -27.745 -13.615 -27.402 -12.843 -26.399 -12.021 Z " fill="#8c8d8f"/>
<path transform="matrix(1,0,0,-1,756.8653,249.00077)" d="M 0 0 L -2.136 0 C -3.614 -6.134 -8.152 -8.617 -15.746 -7.449 L -15.363 -3.971 C -12.204 -4.7 -9.908 -4.605 -8.476 -3.683 C -7.042 -2.761 -6.106 -1.534 -5.668 0 L -5.668 14.349 L -2.136 14.349 L -2.136 3.724 L 0 3.724 Z " fill="#8c8d8f"/>
<path transform="matrix(1,0,0,-1,0,623.626)" d="M 780.689 374.625 L 755.934 374.625 L 755.934 378.349 L 780.689 378.349 Z " fill="#8c8d8f"/>
<path transform="matrix(1,0,0,-1,793.3815,228.14798)" d="M 0 0 C .428 -.448 .936 -.671 1.519 -.671 C 2.122 -.671 2.633 -.448 3.054 0 C 3.473 .448 3.684 .99 3.684 1.63 C 3.684 2.287 3.482 2.83 3.081 3.259 C 2.678 3.688 2.186 3.903 1.602 3.903 C 1 3.903 .475 3.674 .027 3.218 C -.42 2.761 -.643 2.232 -.643 1.63 C -.643 .99 -.43 .448 0 0 M -2.355 6.025 C -1.926 5.577 -1.42 5.354 -.835 5.354 C -.233 5.354 .277 5.577 .698 6.025 C 1.118 6.472 1.328 7.015 1.328 7.654 C 1.328 8.311 1.128 8.855 .725 9.284 C .324 9.712 -.169 9.927 -.754 9.927 C -1.356 9.927 -1.88 9.699 -2.327 9.242 C -2.775 8.786 -2.998 8.257 -2.998 7.654 C -2.998 7.015 -2.784 6.472 -2.355 6.025 M -5.23 0 C -4.802 -.448 -4.296 -.671 -3.711 -.671 C -3.108 -.671 -2.597 -.448 -2.176 0 C -1.757 .448 -1.547 .99 -1.547 1.63 C -1.547 2.287 -1.748 2.83 -2.149 3.259 C -2.552 3.688 -3.044 3.903 -3.628 3.903 C -4.23 3.903 -4.755 3.674 -5.203 3.218 C -5.651 2.761 -5.874 2.232 -5.874 1.63 C -5.874 .99 -5.66 .448 -5.23 0 M .095 -17.128 L 3.93 -17.128 L 3.93 -4.286 L 7.379 -2.971 L 7.379 -20.853 L -13.487 -20.853 L -13.487 -17.128 L -10.474 -17.128 L -10.474 -4.286 L -7.024 -2.971 L -7.024 -17.128 L -3.354 -17.128 L -3.354 -4.286 L .095 -2.971 Z " fill="#8c8d8f"/>
<path transform="matrix(1,0,0,-1,290.1302,268.5908)" d="M 0 0 L 16.823 0 L 16.823 -3.781 L 4.248 -3.781 L 4.248 -12.83 L 16.398 -12.83 L 16.398 -16.631 L 4.248 -16.631 L 4.248 -25.85 L 17.227 -25.85 L 17.227 -29.631 L 0 -29.631 Z " fill="#8c8d8f"/>
<path transform="matrix(1,0,0,-1,317.5311,272.20158)" d="M 0 0 L -1.275 0 L -1.275 -9.367 L .34 -9.367 C 2.492 -9.367 3.968 -9.183 4.769 -8.815 C 5.568 -8.447 6.191 -7.891 6.638 -7.147 C 7.083 -6.404 7.307 -5.558 7.307 -4.609 C 7.307 -3.675 7.059 -2.829 6.563 -2.071 C 6.067 -1.313 5.37 -.779 4.471 -.467 C 3.572 -.156 2.082 0 0 0 M -5.523 -26.062 L -5.523 3.611 L 1.912 3.611 C 4.914 3.611 7.296 2.868 9.059 1.381 C 10.822 -.106 11.704 -2.117 11.704 -4.652 C 11.704 -6.379 11.271 -7.874 10.408 -9.134 C 9.544 -10.394 8.305 -11.335 6.69 -11.958 C 7.639 -12.582 8.567 -13.432 9.473 -14.507 C 10.379 -15.584 11.654 -17.46 13.296 -20.136 C 14.33 -21.822 15.158 -23.089 15.782 -23.938 L 17.354 -26.062 L 12.298 -26.062 L 11.004 -24.107 C 10.962 -24.037 10.877 -23.916 10.75 -23.746 L 9.922 -22.577 L 8.607 -20.41 L 7.186 -18.093 C 6.309 -16.875 5.505 -15.905 4.775 -15.184 C 4.045 -14.463 3.386 -13.943 2.797 -13.625 C 2.209 -13.308 1.22 -13.148 -.169 -13.148 L -1.275 -13.148 L -1.275 -26.062 Z " fill="#8c8d8f"/>
<path transform="matrix(1,0,0,-1,331.7201,268.54829)" d="M 0 0 L 24.788 0 L 24.788 -3.781 L 14.443 -3.781 L 14.443 -29.716 L 10.174 -29.716 L 10.174 -3.781 L 0 -3.781 Z " fill="#8c8d8f"/>
<path transform="matrix(1,0,0,-1,375.1253,272.20158)" d="M 0 0 C -3.339 0 -6.098 -1.076 -8.276 -3.229 C -10.455 -5.381 -11.544 -8.093 -11.544 -11.364 C -11.544 -14.55 -10.448 -17.202 -8.255 -19.318 C -6.062 -21.436 -3.311 -22.494 0 -22.494 C 3.268 -22.494 6.02 -21.411 8.255 -19.244 C 10.49 -17.078 11.608 -14.409 11.608 -11.236 C 11.608 -7.994 10.512 -5.31 8.319 -3.186 C 6.126 -1.062 3.353 0 0 0 M 15.304 -27.932 L 11.038 -32.074 C 9.708 -32.002 8.317 -31.766 6.867 -31.362 C 5.417 -30.958 3.945 -30.403 2.453 -29.695 C .959 -28.986 -1.032 -27.776 -3.522 -26.062 C -7.131 -25.411 -10.107 -23.698 -12.449 -20.922 C -14.792 -18.147 -15.962 -14.947 -15.962 -11.321 C -15.962 -6.889 -14.455 -3.222 -11.441 -.319 C -8.427 2.584 -4.613 4.036 0 4.036 C 4.585 4.036 8.395 2.595 11.431 -.287 C 14.466 -3.168 15.984 -6.79 15.984 -11.151 C 15.984 -14.819 14.837 -18.041 12.545 -20.816 C 10.252 -23.592 7.287 -25.34 3.65 -26.062 L 4.775 -26.487 C 8.271 -27.833 10.79 -28.505 12.333 -28.505 C 13.181 -28.505 14.172 -28.314 15.304 -27.932 " fill="#8c8d8f"/>
<path transform="matrix(1,0,0,-1,412.0501,285.68937)" d="M 0 0 L -4.787 10.748 L -9.227 0 Z M -6.241 17.269 L -3.256 17.269 L 10.049 -12.575 L 5.701 -12.575 L 1.747 -3.781 L -10.913 -3.781 L -14.621 -12.575 L -18.987 -12.575 Z " fill="#8c8d8f"/>
<path transform="matrix(1,0,0,-1,441.0658,285.68937)" d="M 0 0 L -4.788 10.748 L -9.228 0 Z M -6.242 17.269 L -3.256 17.269 L 10.049 -12.575 L 5.701 -12.575 L 1.746 -3.781 L -10.914 -3.781 L -14.622 -12.575 L -18.987 -12.575 Z " fill="#8c8d8f"/>
<path transform="matrix(1,0,0,-1,477.8119,285.68937)" d="M 0 0 L -4.788 10.748 L -9.228 0 Z M -6.242 17.269 L -3.256 17.269 L 10.049 -12.575 L 5.701 -12.575 L 1.746 -3.781 L -10.914 -3.781 L -14.622 -12.575 L -18.987 -12.575 Z " fill="#8c8d8f"/>
<path transform="matrix(1,0,0,-1,491.1117,268.5908)" d="M 0 0 L 4.248 0 L 4.248 -25.808 L 17.608 -25.808 L 17.608 -29.673 L 0 -29.673 Z " fill="#8c8d8f"/>
<path transform="matrix(1,0,0,-1,0,623.626)" d="M 510.908 337.065 L 521.485 337.065 L 521.485 332.923 L 510.908 332.923 Z " fill="#8c8d8f"/>
<path transform="matrix(1,0,0,-1,542.2142,285.68937)" d="M 0 0 L -4.788 10.748 L -9.228 0 Z M -6.242 17.269 L -3.256 17.269 L 10.049 -12.575 L 5.701 -12.575 L 1.746 -3.781 L -10.914 -3.781 L -14.622 -12.575 L -18.987 -12.575 Z " fill="#8c8d8f"/>
<path transform="matrix(1,0,0,-1,579.0912,268.5908)" d="M 0 0 L 4.035 0 L 4.035 -29.673 L .382 -29.673 L -19.457 -6.82 L -19.457 -29.673 L -23.45 -29.673 L -23.45 0 L -20.009 0 L 0 -23.047 Z " fill="#8c8d8f"/>
<path transform="matrix(1,0,0,-1,599.0785,272.3715)" d="M 0 0 L -5.311 0 L -5.311 -22.069 L .127 -22.069 C 2.251 -22.069 3.901 -21.924 5.076 -21.634 C 6.252 -21.344 7.232 -20.975 8.019 -20.529 C 8.804 -20.083 9.522 -19.535 10.174 -18.883 C 12.27 -16.759 13.317 -14.076 13.317 -10.833 C 13.317 -7.646 12.241 -5.048 10.089 -3.038 C 9.296 -2.287 8.387 -1.671 7.359 -1.189 C 6.333 -.708 5.359 -.39 4.439 -.234 C 3.519 -.078 2.039 0 0 0 M -9.559 -25.85 L -9.559 3.781 L .446 3.781 C 4.481 3.781 7.675 3.175 10.025 1.965 C 12.376 .754 14.245 -1.027 15.633 -3.377 C 17.021 -5.728 17.715 -8.291 17.715 -11.066 C 17.715 -13.049 17.332 -14.947 16.567 -16.759 C 15.803 -18.572 14.713 -20.165 13.297 -21.538 C 11.853 -22.955 10.174 -24.023 8.263 -24.746 C 7.144 -25.185 6.117 -25.479 5.183 -25.627 C 4.248 -25.776 2.464 -25.85 -.17 -25.85 Z " fill="#8c8d8f"/>
<path transform="matrix(1,0,0,-1,635.4193,285.68937)" d="M 0 0 L -4.788 10.748 L -9.228 0 Z M -6.242 17.269 L -3.256 17.269 L 10.049 -12.575 L 5.701 -12.575 L 1.746 -3.781 L -10.914 -3.781 L -14.622 -12.575 L -18.987 -12.575 Z " fill="#8c8d8f"/>
<path transform="matrix(1,0,0,-1,648.7181,268.5908)" d="M 0 0 L 4.248 0 L 4.248 -25.808 L 17.608 -25.808 L 17.608 -29.673 L 0 -29.673 Z " fill="#8c8d8f"/>
<path transform="matrix(1,0,0,-1,690.6898,268.5908)" d="M 0 0 L 4.27 0 L 4.27 -16.844 C 4.27 -19.124 4.103 -20.844 3.771 -22.005 C 3.438 -23.167 3.027 -24.133 2.538 -24.905 C 2.05 -25.677 1.451 -26.367 .743 -26.976 C -1.607 -29.001 -4.68 -30.013 -8.475 -30.013 C -12.341 -30.013 -15.442 -29.008 -17.778 -26.997 C -18.486 -26.374 -19.085 -25.677 -19.573 -24.905 C -20.062 -24.133 -20.466 -23.188 -20.784 -22.069 C -21.103 -20.951 -21.262 -19.195 -21.262 -16.801 L -21.262 0 L -16.992 0 L -16.992 -16.844 C -16.992 -19.634 -16.674 -21.574 -16.037 -22.664 C -15.399 -23.754 -14.43 -24.628 -13.127 -25.287 C -11.824 -25.946 -10.288 -26.275 -8.518 -26.275 C -5.997 -26.275 -3.943 -25.616 -2.357 -24.299 C -1.522 -23.591 -.921 -22.756 -.552 -21.793 C -.184 -20.83 0 -19.18 0 -16.844 Z " fill="#8c8d8f"/>
<path transform="matrix(1,0,0,-1,708.1918,285.83149)" d="M 0 0 L -3.229 1.962 C -5.254 3.198 -6.694 4.415 -7.551 5.611 C -8.408 6.808 -8.836 8.185 -8.836 9.743 C -8.836 12.079 -8.025 13.977 -6.404 15.436 C -4.782 16.894 -2.676 17.623 -.085 17.623 C 2.394 17.623 4.666 16.928 6.733 15.536 L 6.733 10.714 C 4.596 12.771 2.294 13.8 -.17 13.8 C -1.558 13.8 -2.697 13.479 -3.59 12.837 C -4.481 12.195 -4.928 11.374 -4.928 10.373 C -4.928 9.483 -4.599 8.651 -3.941 7.875 C -3.285 7.1 -2.228 6.285 -.771 5.432 L 2.473 3.512 C 6.092 1.35 7.902 -1.402 7.902 -4.744 C 7.902 -7.123 7.105 -9.055 5.513 -10.542 C 3.919 -12.029 1.849 -12.772 -.7 -12.772 C -3.632 -12.772 -6.301 -11.872 -8.708 -10.069 L -8.708 -4.674 C -6.414 -7.581 -3.76 -9.034 -.743 -9.034 C .588 -9.034 1.696 -8.664 2.581 -7.923 C 3.466 -7.182 3.908 -6.254 3.908 -5.14 C 3.908 -3.333 2.605 -1.621 0 0 " fill="#8c8d8f"/>
<path transform="matrix(1,0,0,-1,758.4261,291.38227)" d="M 0 0 L 0 -4.673 C -3.115 -6.372 -6.712 -7.222 -10.79 -7.222 C -14.104 -7.222 -16.915 -6.556 -19.223 -5.225 C -21.531 -3.894 -23.357 -2.06 -24.703 .276 C -26.048 2.613 -26.721 5.141 -26.721 7.859 C -26.721 12.178 -25.181 15.811 -22.101 18.756 C -19.021 21.701 -15.223 23.174 -10.705 23.174 C -7.59 23.174 -4.128 22.359 -.318 20.731 L -.318 16.165 C -3.788 18.147 -7.179 19.138 -10.492 19.138 C -13.892 19.138 -16.713 18.065 -18.957 15.92 C -21.202 13.775 -22.324 11.088 -22.324 7.859 C -22.324 4.602 -21.22 1.926 -19.01 -.17 C -16.801 -2.266 -13.977 -3.313 -10.535 -3.313 C -6.938 -3.313 -3.427 -2.209 0 0 " fill="#8c8d8f"/>
<path transform="matrix(1,0,0,-1,778.3832,272.20158)" d="M 0 0 C -3.396 0 -6.187 -1.062 -8.372 -3.186 C -10.558 -5.31 -11.651 -8.022 -11.651 -11.321 C -11.651 -14.522 -10.555 -17.184 -8.361 -19.308 C -6.169 -21.432 -3.424 -22.494 -.128 -22.494 C 3.183 -22.494 5.944 -21.411 8.159 -19.244 C 10.373 -17.078 11.48 -14.38 11.48 -11.151 C 11.48 -8.008 10.373 -5.363 8.159 -3.218 C 5.944 -1.073 3.225 0 0 0 M -.17 4.036 C 4.414 4.036 8.231 2.584 11.281 -.319 C 14.331 -3.222 15.855 -6.861 15.855 -11.236 C 15.855 -15.612 14.317 -19.233 11.239 -22.101 C 8.161 -24.969 4.28 -26.402 -.403 -26.402 C -4.875 -26.402 -8.601 -24.969 -11.58 -22.101 C -14.559 -19.233 -16.048 -15.641 -16.048 -11.321 C -16.048 -6.889 -14.548 -3.222 -11.548 -.319 C -8.548 2.584 -4.755 4.036 -.17 4.036 " fill="#8c8d8f"/>
<path transform="matrix(1,0,0,-1,798.3168,293.52729)" d="M 0 0 C .723 0 1.339 -.248 1.849 -.744 C 2.358 -1.239 2.613 -1.848 2.613 -2.57 C 2.613 -3.278 2.361 -3.873 1.859 -4.354 C 1.356 -4.836 .736 -5.077 0 -5.077 C -.722 -5.077 -1.331 -4.836 -1.826 -4.354 C -2.322 -3.873 -2.569 -3.278 -2.569 -2.57 C -2.569 -1.848 -2.322 -1.239 -1.826 -.744 C -1.331 -.248 -.722 0 0 0 " fill="#8c8d8f"/>
<path transform="matrix(1,0,0,-1,306.4237,317.18937)" d="M 0 0 L 2.668 0 L 2.668 -19.933 L -.2 -19.933 L -.2 -4.424 L -6.328 -12.128 L -6.855 -12.128 L -13.055 -4.424 L -13.055 -19.933 L -15.909 -19.933 L -15.909 0 L -13.207 0 L -6.584 -8.187 Z " fill="#3d6676"/>
<path transform="matrix(1,0,0,-1,318.7225,334.5254)" d="M 0 0 L 0 3.896 L -1.741 3.225 C -2.625 2.873 -3.251 2.519 -3.617 2.162 C -3.983 1.805 -4.167 1.36 -4.167 .827 C -4.167 .285 -3.993 -.157 -3.646 -.499 C -3.298 -.842 -2.849 -1.013 -2.297 -1.013 C -1.47 -1.013 -.704 -.676 0 0 M 2.554 5.294 L 2.554 -.285 C 2.554 -.732 2.706 -.956 3.01 -.956 C 3.324 -.956 3.814 -.723 4.48 -.257 L 4.48 -1.841 C 3.89 -2.221 3.417 -2.48 3.06 -2.618 C 2.704 -2.756 2.33 -2.825 1.94 -2.825 C .827 -2.825 .171 -2.388 -.029 -1.513 C -1.132 -2.368 -2.307 -2.797 -3.553 -2.797 C -4.466 -2.797 -5.227 -2.494 -5.836 -1.891 C -6.445 -1.286 -6.749 -.527 -6.749 .386 C -6.749 1.213 -6.452 1.952 -5.857 2.604 C -5.263 3.256 -4.418 3.771 -3.325 4.152 L 0 5.294 L 0 5.992 C 0 7.571 -.79 8.361 -2.369 8.361 C -3.786 8.361 -5.165 7.629 -6.506 6.164 L -6.506 9.003 C -5.498 10.192 -4.048 10.787 -2.155 10.787 C -.737 10.787 .399 10.416 1.255 9.674 C 1.541 9.436 1.797 9.119 2.026 8.725 C 2.254 8.33 2.399 7.936 2.461 7.541 C 2.523 7.146 2.554 6.396 2.554 5.294 " fill="#3d6676"/>
<path transform="matrix(1,0,0,-1,328.2821,323.9951)" d="M 0 0 L 0 -3.011 L .143 -2.782 C 1.398 -.757 2.654 .257 3.909 .257 C 4.889 .257 5.911 -.238 6.977 -1.228 L 5.607 -3.511 C 4.703 -2.654 3.866 -2.227 3.096 -2.227 C 2.259 -2.227 1.534 -2.626 .92 -3.425 C .307 -4.224 0 -5.17 0 -6.264 L 0 -13.127 L -2.611 -13.127 L -2.611 0 Z " fill="#3d6676"/>
<path transform="matrix(1,0,0,-1,339.5536,327.4199)" d="M 0 0 L 0 -7.105 C .885 -7.372 1.793 -7.505 2.725 -7.505 C 3.876 -7.505 4.815 -7.096 5.543 -6.278 C 6.271 -5.46 6.634 -4.409 6.634 -3.125 C 6.634 -1.821 6.294 -.761 5.614 .057 C 4.934 .875 4.047 1.284 2.954 1.284 C 1.983 1.284 .999 .856 0 0 M -2.597 10.23 L 0 10.23 L 0 2.482 C 1.122 3.301 2.321 3.71 3.595 3.71 C 5.26 3.71 6.62 3.082 7.676 1.826 C 8.732 .57 9.26 -1.042 9.26 -3.011 C 9.26 -5.122 8.629 -6.804 7.369 -8.055 C 6.109 -9.305 4.423 -9.931 2.312 -9.931 C 1.465 -9.931 .573 -9.84 -.364 -9.659 C -1.301 -9.479 -2.045 -9.25 -2.597 -8.975 Z " fill="#3d6676"/>
<path transform="matrix(1,0,0,-1,0,623.626)" d="M 351.738 306.437 L 354.335 306.437 L 354.335 286.504 L 351.738 286.504 Z " fill="#3d6676"/>
<path transform="matrix(1,0,0,-1,360.0995,329.23139)" d="M 0 0 L 6.606 0 C 6.539 1.036 6.23 1.835 5.678 2.396 C 5.126 2.958 4.385 3.238 3.453 3.238 C 2.521 3.238 1.757 2.958 1.163 2.396 C .568 1.835 .18 1.036 0 0 M 9.174 -1.556 L -.057 -1.556 C .009 -2.812 .43 -3.81 1.206 -4.552 C 1.98 -5.294 2.982 -5.665 4.209 -5.665 C 5.921 -5.665 7.5 -5.132 8.946 -4.066 L 8.946 -6.606 C 8.147 -7.14 7.355 -7.52 6.57 -7.748 C 5.786 -7.977 4.865 -8.091 3.81 -8.091 C 2.363 -8.091 1.193 -7.791 .299 -7.191 C -.595 -6.592 -1.311 -5.786 -1.848 -4.773 C -2.385 -3.76 -2.654 -2.588 -2.654 -1.256 C -2.654 .741 -2.088 2.365 -.956 3.616 C .176 4.867 1.646 5.493 3.453 5.493 C 5.193 5.493 6.582 4.884 7.619 3.666 C 8.656 2.448 9.174 .817 9.174 -1.228 Z " fill="#3d6676"/>
<path transform="matrix(1,0,0,-1,385.8963,334.5254)" d="M 0 0 L 0 3.896 L -1.741 3.225 C -2.625 2.873 -3.251 2.519 -3.617 2.162 C -3.983 1.805 -4.167 1.36 -4.167 .827 C -4.167 .285 -3.993 -.157 -3.646 -.499 C -3.298 -.842 -2.849 -1.013 -2.297 -1.013 C -1.47 -1.013 -.704 -.676 0 0 M 2.554 5.294 L 2.554 -.285 C 2.554 -.732 2.706 -.956 3.01 -.956 C 3.324 -.956 3.814 -.723 4.48 -.257 L 4.48 -1.841 C 3.89 -2.221 3.417 -2.48 3.06 -2.618 C 2.704 -2.756 2.33 -2.825 1.94 -2.825 C .827 -2.825 .171 -2.388 -.029 -1.513 C -1.132 -2.368 -2.307 -2.797 -3.553 -2.797 C -4.466 -2.797 -5.227 -2.494 -5.836 -1.891 C -6.445 -1.286 -6.749 -.527 -6.749 .386 C -6.749 1.213 -6.452 1.952 -5.857 2.604 C -5.263 3.256 -4.418 3.771 -3.325 4.152 L 0 5.294 L 0 5.992 C 0 7.571 -.79 8.361 -2.369 8.361 C -3.786 8.361 -5.165 7.629 -6.506 6.164 L -6.506 9.003 C -5.498 10.192 -4.048 10.787 -2.155 10.787 C -.737 10.787 .399 10.416 1.255 9.674 C 1.541 9.436 1.797 9.119 2.026 8.725 C 2.254 8.33 2.399 7.936 2.461 7.541 C 2.523 7.146 2.554 6.396 2.554 5.294 " fill="#3d6676"/>
<path transform="matrix(1,0,0,-1,395.2699,323.9951)" d="M 0 0 L 0 -1.67 C 1.16 -.386 2.478 .257 3.952 .257 C 4.77 .257 5.531 .045 6.235 -.379 C 6.938 -.802 7.474 -1.382 7.84 -2.119 C 8.206 -2.856 8.389 -4.024 8.389 -5.622 L 8.389 -13.127 L 5.792 -13.127 L 5.792 -5.65 C 5.792 -4.31 5.588 -3.352 5.179 -2.775 C 4.77 -2.2 4.085 -1.912 3.125 -1.912 C 1.897 -1.912 .856 -2.526 0 -3.753 L 0 -13.127 L -2.654 -13.127 L -2.654 0 Z " fill="#3d6676"/>
<path transform="matrix(1,0,0,-1,416.0438,334.89637)" d="M 0 0 L 0 8.318 C -.809 8.728 -1.626 8.932 -2.454 8.932 C -3.748 8.932 -4.777 8.509 -5.543 7.662 C -6.309 6.815 -6.692 5.674 -6.692 4.237 C -6.692 2.887 -6.359 1.846 -5.693 1.113 C -5.293 .676 -4.87 .381 -4.423 .229 C -3.976 .076 -3.172 0 -2.012 0 Z M 0 17.707 L 2.611 17.707 L 2.611 -2.226 L -2.939 -2.226 C -4.879 -2.226 -6.428 -1.612 -7.583 -.385 C -8.739 .842 -9.317 2.487 -9.317 4.552 C -9.317 6.482 -8.71 8.071 -7.498 9.317 C -6.285 10.563 -4.737 11.187 -2.854 11.187 C -1.979 11.187 -1.027 11.001 0 10.63 Z " fill="#3d6676"/>
<path transform="matrix(1,0,0,-1,435.5907,328.77049)" d="M 0 0 L -2.168 1.317 C -3.529 2.148 -4.497 2.965 -5.072 3.769 C -5.647 4.572 -5.935 5.498 -5.935 6.544 C -5.935 8.113 -5.391 9.388 -4.302 10.368 C -3.212 11.348 -1.797 11.838 -.057 11.838 C 1.607 11.838 3.134 11.37 4.523 10.436 L 4.523 7.197 C 3.087 8.578 1.541 9.27 -.114 9.27 C -1.046 9.27 -1.812 9.054 -2.411 8.623 C -3.01 8.191 -3.31 7.64 -3.31 6.967 C -3.31 6.37 -3.089 5.811 -2.648 5.29 C -2.207 4.769 -1.497 4.222 -.519 3.648 L 1.661 2.358 C 4.092 .906 5.307 -.941 5.307 -3.187 C 5.307 -4.784 4.773 -6.083 3.703 -7.082 C 2.633 -8.08 1.242 -8.58 -.471 -8.58 C -2.439 -8.58 -4.233 -7.975 -5.85 -6.765 L -5.85 -3.141 C -4.309 -5.093 -2.525 -6.068 -.499 -6.068 C .395 -6.068 1.139 -5.82 1.734 -5.322 C 2.328 -4.825 2.625 -4.201 2.625 -3.453 C 2.625 -2.239 1.75 -1.089 0 0 " fill="#3d6676"/>
<path transform="matrix(1,0,0,-1,441.8402,326.07908)" d="M 0 0 L 4.88 4.794 L 4.88 2.084 L 9.031 2.084 L 9.031 -.257 L 4.88 -.257 L 4.88 -6.681 C 4.88 -8.181 5.503 -8.932 6.749 -8.932 C 7.681 -8.932 8.665 -8.622 9.702 -8.004 L 9.702 -10.43 C 8.703 -10.991 7.614 -11.271 6.435 -11.271 C 5.246 -11.271 4.257 -10.924 3.467 -10.229 C 3.22 -10.021 3.016 -9.785 2.854 -9.523 C 2.691 -9.262 2.557 -8.92 2.447 -8.496 C 2.338 -8.073 2.283 -7.267 2.283 -6.078 L 2.283 -.257 L 0 -.257 Z " fill="#3d6676"/>
<path transform="matrix(1,0,0,-1,459.5462,326.30659)" d="M 0 0 C -1.246 0 -2.269 -.409 -3.067 -1.228 C -3.866 -2.046 -4.266 -3.087 -4.266 -4.353 C -4.266 -5.607 -3.857 -6.633 -3.039 -7.427 C -2.221 -8.221 -1.17 -8.618 .114 -8.618 C 1.389 -8.618 2.433 -8.217 3.246 -7.412 C 4.06 -6.608 4.466 -5.579 4.466 -4.323 C 4.466 -3.077 4.043 -2.046 3.196 -1.228 C 2.35 -.409 1.284 0 0 0 M .143 2.34 C 2.141 2.34 3.8 1.695 5.122 .406 C 6.444 -.883 7.105 -2.502 7.105 -4.452 C 7.105 -6.345 6.435 -7.917 5.094 -9.168 C 3.753 -10.418 2.064 -11.044 .028 -11.044 C -1.94 -11.044 -3.586 -10.409 -4.908 -9.139 C -6.23 -7.869 -6.892 -6.283 -6.892 -4.381 C -6.892 -2.459 -6.223 -.858 -4.887 .421 C -3.551 1.7 -1.874 2.34 .143 2.34 " fill="#3d6676"/>
<path transform="matrix(1,0,0,-1,472.1312,323.9951)" d="M 0 0 L 0 -1.67 C 1.16 -.386 2.478 .257 3.952 .257 C 4.77 .257 5.531 .045 6.235 -.379 C 6.938 -.802 7.474 -1.382 7.84 -2.119 C 8.206 -2.856 8.39 -4.024 8.39 -5.622 L 8.39 -13.127 L 5.793 -13.127 L 5.793 -5.65 C 5.793 -4.31 5.588 -3.352 5.179 -2.775 C 4.77 -2.2 4.085 -1.912 3.124 -1.912 C 1.897 -1.912 .855 -2.526 0 -3.753 L 0 -13.127 L -2.654 -13.127 L -2.654 0 Z " fill="#3d6676"/>
<path transform="matrix(1,0,0,-1,486.1566,329.23139)" d="M 0 0 L 6.605 0 C 6.539 1.036 6.229 1.835 5.679 2.396 C 5.127 2.958 4.385 3.238 3.452 3.238 C 2.521 3.238 1.757 2.958 1.163 2.396 C .568 1.835 .181 1.036 0 0 M 9.174 -1.556 L -.058 -1.556 C .009 -2.812 .43 -3.81 1.205 -4.552 C 1.98 -5.294 2.981 -5.665 4.209 -5.665 C 5.921 -5.665 7.5 -5.132 8.945 -4.066 L 8.945 -6.606 C 8.146 -7.14 7.354 -7.52 6.57 -7.748 C 5.785 -7.977 4.865 -8.091 3.81 -8.091 C 2.363 -8.091 1.193 -7.791 .3 -7.191 C -.595 -6.592 -1.311 -5.786 -1.848 -4.773 C -2.386 -3.76 -2.654 -2.588 -2.654 -1.256 C -2.654 .741 -2.088 2.365 -.956 3.616 C .176 4.867 1.646 5.493 3.452 5.493 C 5.193 5.493 6.582 4.884 7.619 3.666 C 8.655 2.448 9.174 .817 9.174 -1.228 Z " fill="#3d6676"/>
<path transform="matrix(1,0,0,-1,593.5453,338.73918)" d="M 0 0 L -3.213 0 C -3.497 0 -3.827 .236 -4.205 .708 C -4.427 -.614 -5.167 -2.205 -6.427 -4.064 C -8.002 -6.428 -9.562 -7.609 -11.105 -7.609 C -11.956 -7.609 -13.319 -7.191 -15.193 -6.356 C -17.067 -5.521 -18.209 -4.868 -18.619 -4.396 L -18.619 -4.064 C -18.556 -3.97 -18.445 -3.923 -18.288 -3.923 C -18.225 -3.923 -17.729 -4.112 -16.8 -4.49 C -15.871 -4.868 -15.154 -5.057 -14.649 -5.057 C -13.39 -5.057 -11.688 -4.175 -9.546 -2.41 C -7.403 -.646 -6.332 .708 -6.332 1.653 C -6.332 2.315 -7.12 3.527 -8.695 5.293 L -6.663 8.647 C -4.71 6.127 -2.835 4.521 -1.039 3.827 L 0 3.827 Z " fill="#3d6676"/>
<path transform="matrix(1,0,0,-1,0,623.626)" d="M 596.332 284.887 L 592.599 284.887 L 592.599 288.714 L 596.332 288.714 Z " fill="#3d6676"/>
<path transform="matrix(1,0,0,-1,0,623.626)" d="M 599.215 284.887 L 595.48208 284.887 L 595.48208 288.714 L 599.215 288.714 Z " fill="#3d6676"/>
<path transform="matrix(1,0,0,-1,0,623.626)" d="M 602.097 284.887 L 598.364 284.887 L 598.364 288.714 L 602.097 288.714 Z " fill="#3d6676"/>
<path transform="matrix(1,0,0,-1,0,623.626)" d="M 604.98 284.887 L 601.247 284.887 L 601.247 288.714 L 604.98 288.714 Z " fill="#3d6676"/>
<path transform="matrix(1,0,0,-1,0,623.626)" d="M 607.862 284.887 L 604.129 284.887 L 604.129 288.714 L 607.862 288.714 Z " fill="#3d6676"/>
<path transform="matrix(1,0,0,-1,0,623.626)" d="M 610.744 284.887 L 607.01107 284.887 L 607.01107 288.714 L 610.744 288.714 Z " fill="#3d6676"/>
<path transform="matrix(1,0,0,-1,0,623.626)" d="M 613.626 284.887 L 609.893 284.887 L 609.893 288.714 L 613.626 288.714 Z " fill="#3d6676"/>
<path transform="matrix(1,0,0,-1,0,623.626)" d="M 616.508 284.887 L 612.775 284.887 L 612.775 288.714 L 616.508 288.714 Z " fill="#3d6676"/>
<path transform="matrix(1,0,0,-1,628.89,344.12687)" d="M 0 0 C -.031 -.126 -.395 -.559 -1.087 -1.3 C -1.78 -2.04 -2.205 -2.41 -2.362 -2.41 C -2.521 -2.41 -3.048 -2.15 -3.945 -1.631 C -4.844 -1.11 -5.293 -.771 -5.293 -.614 C -5.293 -.52 -4.938 -.118 -4.229 .591 C -3.521 1.3 -3.104 1.654 -2.977 1.654 C -2.883 1.654 -2.474 1.434 -1.748 .992 C -.835 .457 -.252 .126 0 0 M 11.531 5.388 L 5.907 5.388 C 5.781 6.571 5.64 7.5 5.482 8.173 C 5.072 8.301 4.159 8.364 2.741 8.364 C 1.575 8.364 .819 8.349 .473 8.316 C .126 8.284 -.315 8.125 -.851 7.837 C -1.639 7.388 -2.426 6.939 -3.213 6.492 C -4.6 5.755 -5.466 5.388 -5.812 5.388 L -13.704 5.388 L -13.704 9.121 L -5.15 9.121 C -4.175 9.121 -2.835 9.623 -1.134 10.629 C -4.033 11.828 -5.876 12.429 -6.663 12.429 C -7.325 12.429 -8.364 12.051 -9.782 11.295 C -8.554 14.444 -6.837 16.021 -4.631 16.021 C -3.686 16.021 -2.489 15.685 -1.039 15.014 C .945 14.119 2.269 13.576 2.931 13.385 C 4.505 12.905 6.632 12.506 9.311 12.188 C 8.995 11.484 8.648 10.478 8.271 9.169 C 8.302 9.136 9.011 9.121 10.397 9.121 L 11.531 9.121 Z " fill="#3d6676"/>
<path transform="matrix(1,0,0,-1,671.2806,324.18449)" d="M 0 0 C 0 -.063 -.442 -.638 -1.323 -1.725 C -2.206 -2.812 -2.646 -3.528 -2.646 -3.875 L -1.891 -10.019 C -1.891 -10.21 -2.002 -10.846 -2.222 -11.929 C -2.38 -12.852 -2.568 -13.616 -2.789 -14.221 C -2.853 -14.443 -3.01 -14.555 -3.262 -14.555 L -13.517 -14.555 C -13.643 -13.819 -13.832 -12.874 -14.083 -11.722 C -14.431 -11.626 -15.328 -11.578 -16.777 -11.578 C -18.006 -11.578 -18.817 -11.626 -19.211 -11.722 C -19.605 -11.817 -20.321 -12.187 -21.361 -12.826 C -22.621 -13.595 -23.472 -14.075 -23.913 -14.268 C -24.354 -14.459 -24.669 -14.555 -24.858 -14.555 L -32.655 -14.555 L -32.655 -10.728 L -24.102 -10.728 C -23.882 -10.728 -23.487 -10.633 -22.921 -10.443 C -22.354 -10.255 -21.534 -9.861 -20.463 -9.262 C -20.841 -9.104 -21.425 -8.884 -22.212 -8.601 C -22.685 -8.443 -23.693 -8.128 -25.236 -7.655 C -25.331 -7.624 -25.552 -7.608 -25.897 -7.608 C -26.37 -7.608 -26.843 -7.687 -27.315 -7.845 C -27.599 -8.003 -28.088 -8.27 -28.78 -8.647 L -28.78 -8.317 C -28.78 -8.254 -28.544 -7.797 -28.071 -6.946 C -27.852 -6.506 -27.474 -5.986 -26.937 -5.387 C -26.276 -4.663 -25.686 -4.237 -25.165 -4.111 C -24.646 -3.985 -24.213 -3.922 -23.866 -3.922 C -23.173 -3.922 -22.621 -4.002 -22.212 -4.16 C -20.857 -4.795 -18.794 -5.651 -16.021 -6.729 C -14.005 -7.364 -12.146 -7.697 -10.444 -7.729 C -10.444 -7.824 -10.729 -8.823 -11.295 -10.728 L -4.426 -10.728 C -4.3 -10.492 -4.236 -10.225 -4.236 -9.922 C -4.236 -9.575 -4.376 -8.566 -4.656 -6.896 C -4.942 -5.668 -5.323 -3.81 -5.801 -1.321 C -5.833 -1.038 -6.008 -.771 -6.325 -.518 L -7.184 .19 C -6.68 1.136 -5.845 2.553 -4.679 4.442 C -4.773 3.592 -4.49 2.931 -3.828 2.458 C -3.545 2.269 -2.758 1.796 -1.466 1.04 C -.489 .441 0 .095 0 0 " fill="#3d6676"/>
<path transform="matrix(1,0,0,-1,680.3529,331.68159)" d="M 0 0 C 0 -2.779 -.646 -5.132 -1.937 -7.058 L -3.687 7.581 C -3.687 7.833 -3.293 8.606 -2.505 9.901 C -1.812 11.007 -1.292 11.781 -.945 12.224 Z " fill="#3d6676"/>
<path transform="matrix(1,0,0,-1,691.6,334.38279)" d="M 0 0 C 0 .673 -.221 1.219 -.662 1.636 C -1.04 1.956 -1.449 2.117 -1.891 2.117 C -2.174 2.117 -2.584 1.989 -3.119 1.732 C -3.75 1.411 -4.064 1.026 -4.064 .577 C -4.064 .256 -3.702 -.017 -2.978 -.241 C -2.474 -.402 -2.063 -.481 -1.749 -.481 C -1.245 -.481 -.662 -.321 0 0 M 3.119 -.623 C 3.119 -3.112 2.488 -5.633 1.229 -8.185 C -.253 -11.146 -2.063 -12.627 -4.206 -12.627 C -5.183 -12.627 -6.687 -12.351 -8.719 -11.8 C -10.751 -11.248 -11.972 -10.8 -12.382 -10.453 C -12.382 -10.075 -12.161 -9.886 -11.72 -9.886 C -11.656 -9.886 -11.059 -9.996 -9.924 -10.217 C -8.79 -10.437 -8.176 -10.548 -8.081 -10.548 C -6.79 -10.548 -4.946 -9.634 -2.552 -7.807 C .095 -5.822 1.418 -4.011 1.418 -2.372 C 1.418 -1.932 1.339 -1.506 1.182 -1.096 L 1.087 -1.096 C .646 -2.375 .134 -3.238 -.449 -3.686 C -1.032 -4.133 -1.812 -4.356 -2.788 -4.356 C -3.892 -4.356 -4.647 -4.024 -5.057 -3.36 C -5.34 -2.854 -5.482 -2.031 -5.482 -.892 L -5.482 .248 C -5.388 .943 -4.837 2.051 -3.828 3.57 C -2.631 5.374 -1.544 6.276 -.567 6.276 C .062 6.276 .725 5.787 1.418 4.812 C 1.858 4.118 2.189 3.472 2.41 2.874 C 2.505 2.621 2.63 2.228 2.788 1.692 C 3.008 .842 3.119 .069 3.119 -.623 " fill="#3d6676"/>
<path transform="matrix(1,0,0,-1,715.6058,333.11619)" d="M 0 0 L -1.273 -3.497 L -1.557 -3.497 C -1.589 -3.497 -1.974 -3.387 -2.713 -3.166 C -3.452 -2.946 -3.995 -2.819 -4.341 -2.788 C -4.529 -2.757 -4.971 -2.74 -5.662 -2.74 C -6.479 -2.74 -7.36 -2.819 -8.305 -2.977 C -8.777 -3.04 -9.139 -3.134 -9.39 -3.259 C -9.799 -3.417 -10.082 -3.59 -10.239 -3.778 L -9.296 -10.395 C -9.52 -11.845 -9.678 -12.79 -9.772 -13.231 C -9.995 -14.303 -10.281 -15.091 -10.631 -15.595 L -10.869 -15.689 L -12.429 -4.158 C -11.925 -1.765 -9.498 -.126 -5.15 .757 C -5.245 1.008 -5.568 1.283 -6.119 1.583 C -6.671 1.883 -7.128 2.071 -7.49 2.15 C -7.853 2.229 -8.081 2.269 -8.175 2.269 C -8.806 2.269 -9.468 1.922 -10.16 1.229 C -10.381 1.008 -10.728 .725 -11.199 .378 L -11.199 .709 C -11.199 .835 -11.027 1.26 -10.68 1.985 C -10.176 2.993 -9.734 3.749 -9.356 4.254 C -8.727 5.135 -7.908 5.734 -6.899 6.049 L -6.45 6.049 L -6.001 6.049 C -5.844 5.955 -5.498 5.719 -4.962 5.341 C -3.197 4.175 -1.544 2.395 0 0 " fill="#3d6676"/>
<path transform="matrix(1,0,0,-1,725.3412,338.73918)" d="M 0 0 L -5.34 0 L -6.994 17.525 C -6.994 17.651 -6.821 17.92 -6.475 18.33 C -5.907 19.057 -5.183 19.861 -4.301 20.746 C -4.206 19.985 -4.096 18.86 -3.97 17.372 C -3.402 11.193 -2.946 6.917 -2.599 4.541 C -2.568 4.382 -2.427 4.271 -2.174 4.209 C -2.048 4.176 -1.827 4.089 -1.512 3.946 C -1.197 3.804 -.961 3.733 -.804 3.733 L 0 3.733 Z " fill="#3d6676"/>
<path transform="matrix(1,0,0,-1,0,623.626)" d="M 728.175 284.887 L 724.442 284.887 L 724.442 288.714 L 728.175 288.714 Z " fill="#3d6676"/>
<path transform="matrix(1,0,0,-1,0,623.626)" d="M 731.058 284.887 L 727.325 284.887 L 727.325 288.714 L 731.058 288.714 Z " fill="#3d6676"/>
<path transform="matrix(1,0,0,-1,0,623.626)" d="M 733.94 284.887 L 730.20706 284.887 L 730.20706 288.714 L 733.94 288.714 Z " fill="#3d6676"/>
<path transform="matrix(1,0,0,-1,0,623.626)" d="M 736.823 284.887 L 733.09 284.887 L 733.09 288.714 L 736.823 288.714 Z " fill="#3d6676"/>
<path transform="matrix(1,0,0,-1,0,623.626)" d="M 739.704 284.887 L 735.971 284.887 L 735.971 288.714 L 739.704 288.714 Z " fill="#3d6676"/>
<path transform="matrix(1,0,0,-1,0,623.626)" d="M 742.586 284.887 L 738.853 284.887 L 738.853 288.714 L 742.586 288.714 Z " fill="#3d6676"/>
<path transform="matrix(1,0,0,-1,753.7396,323.09757)" d="M 0 0 C 0 -.126 -.095 -.3 -.283 -.52 C -1.387 -1.937 -2.127 -2.646 -2.505 -2.646 C -2.883 -2.646 -3.907 -2.031 -5.576 -.803 C -5.451 -.457 -5.104 0 -4.537 .567 C -3.97 1.135 -3.514 1.528 -3.166 1.749 Z M 9.877 -10.443 C 9.688 -10.728 8.979 -11.688 7.75 -13.326 C 7.593 -13.516 7.42 -13.61 7.23 -13.61 L 1.276 -13.138 C .898 -13.138 .504 -13.218 .095 -13.378 C -.41 -13.604 -1.449 -14.069 -3.024 -14.775 C -4.316 -15.354 -4.994 -15.642 -5.057 -15.642 L -12.476 -15.642 L -12.476 -11.908 L -4.206 -11.908 C -3.419 -11.908 -2.441 -11.682 -1.276 -11.228 C -1.15 -11.162 -.883 -10.984 -.473 -10.691 C -2.143 -9.718 -3.639 -9.102 -4.962 -8.841 C -5.372 -8.744 -5.718 -8.695 -6.002 -8.695 C -6.19 -8.695 -6.349 -8.711 -6.475 -8.742 C -6.947 -8.9 -7.687 -9.137 -8.695 -9.451 L -8.695 -9.12 C -8.695 -9.09 -8.522 -8.79 -8.176 -8.223 C -7.041 -6.521 -5.907 -5.498 -4.773 -5.15 C -4.489 -5.057 -4.206 -5.009 -3.922 -5.009 C -3.607 -5.009 -3.229 -5.041 -2.788 -5.104 C -2.032 -5.262 -1.449 -5.466 -1.04 -5.718 C 3.087 -8.207 6.727 -9.782 9.877 -10.443 " fill="#3d6676"/>
<path transform="matrix(1,0,0,-1,780.7699,338.73918)" d="M 0 0 L -3.213 0 C -3.497 0 -3.827 .236 -4.205 .708 C -4.427 -.614 -5.167 -2.205 -6.427 -4.064 C -8.002 -6.428 -9.562 -7.609 -11.105 -7.609 C -11.956 -7.609 -13.319 -7.191 -15.193 -6.356 C -17.067 -5.521 -18.209 -4.868 -18.619 -4.396 L -18.619 -4.064 C -18.556 -3.97 -18.445 -3.923 -18.288 -3.923 C -18.225 -3.923 -17.729 -4.112 -16.8 -4.49 C -15.871 -4.868 -15.154 -5.057 -14.649 -5.057 C -13.39 -5.057 -11.688 -4.175 -9.546 -2.41 C -7.403 -.646 -6.332 .708 -6.332 1.653 C -6.332 2.315 -7.12 3.527 -8.695 5.293 L -6.663 8.647 C -4.71 6.127 -2.835 4.521 -1.039 3.827 L 0 3.827 Z " fill="#3d6676"/>
<path transform="matrix(1,0,0,-1,790.6947,338.73918)" d="M 0 0 L -3.355 0 C -3.576 .153 -3.733 .5 -3.828 1.039 C -3.923 1.578 -4.018 1.94 -4.111 2.126 C -4.427 1.664 -4.963 .955 -5.719 0 L -11.342 0 L -11.342 3.733 L -4.442 3.733 L -6.144 15.381 L -3.261 19.375 C -3.136 18.519 -3.01 17.457 -2.883 16.189 C -2.631 13.686 -2.285 9.897 -1.844 4.826 C -1.812 4.097 -1.402 3.733 -.614 3.733 L 0 3.733 Z " fill="#3d6676"/>
<path transform="matrix(1,0,0,-1,800.9017,323.2129)" d="M 0 0 C -.126 -.317 -.41 -.729 -.851 -1.235 C -.945 -1.33 -1.56 -2.122 -2.693 -3.609 C -2.757 -3.704 -2.788 -3.847 -2.788 -4.036 L -1.984 -10.589 L -2.883 -15.337 C -2.946 -15.337 -3.048 -15.369 -3.189 -15.433 C -3.332 -15.495 -3.45 -15.526 -3.544 -15.526 L -11.625 -15.526 L -11.625 -11.793 L -4.631 -11.793 C -4.537 -11.317 -4.489 -10.937 -4.489 -10.649 C -4.489 -10.077 -4.631 -9.013 -4.915 -7.455 C -5.136 -6.025 -5.561 -3.912 -6.19 -1.115 L -7.562 -.019 C -6.68 1.793 -5.797 3.318 -4.915 4.558 C -4.915 3.894 -4.805 3.387 -4.584 3.038 C -4.458 2.849 -3.797 2.374 -2.6 1.614 C -1.748 1.044 -.883 .506 0 0 " fill="#3d6676"/>
<path transform="matrix(1,0,0,-1,201.6277,192.38568)" d="M 0 0 L 0 4.713 L -18.567 4.713 L -18.567 .269 C -38.896 -2.753 -55.751 -16.403 -63.3 -34.857 L 43.211 -34.857 C 35.852 -16.868 19.642 -3.465 0 0 " fill="#3d6676"/>
<path transform="matrix(1,0,0,-1,151.2084,326.16499)" d="M 0 0 L 8.457 0 L 8.457 -1.9 L 2.135 -1.9 L 2.135 -6.449 L 8.243 -6.449 L 8.243 -8.361 L 2.135 -8.361 L 2.135 -12.995 L 8.66 -12.995 L 8.66 -14.896 L 0 -14.896 Z " fill="#69b0dc"/>
<path transform="matrix(1,0,0,-1,164.9828,327.98039)" d="M 0 0 L -.641 0 L -.641 -4.709 L .17 -4.709 C 1.252 -4.709 1.995 -4.616 2.397 -4.432 C 2.799 -4.246 3.112 -3.967 3.336 -3.593 C 3.561 -3.22 3.673 -2.794 3.673 -2.317 C 3.673 -1.848 3.548 -1.422 3.299 -1.041 C 3.05 -.66 2.699 -.392 2.248 -.235 C 1.795 -.078 1.046 0 0 0 M -2.776 -13.102 L -2.776 1.815 L .961 1.815 C 2.47 1.815 3.667 1.441 4.554 .694 C 5.44 -.054 5.883 -1.064 5.883 -2.339 C 5.883 -3.207 5.666 -3.958 5.232 -4.592 C 4.797 -5.225 4.175 -5.698 3.363 -6.012 C 3.84 -6.325 4.307 -6.752 4.762 -7.293 C 5.218 -7.834 5.858 -8.777 6.684 -10.122 C 7.204 -10.97 7.62 -11.606 7.934 -12.034 L 8.724 -13.102 L 6.182 -13.102 L 5.532 -12.119 C 5.51 -12.083 5.468 -12.022 5.404 -11.938 L 4.988 -11.35 L 4.327 -10.26 L 3.612 -9.096 C 3.171 -8.482 2.768 -7.995 2.4 -7.633 C 2.033 -7.271 1.702 -7.009 1.406 -6.85 C 1.11 -6.689 .613 -6.609 -.085 -6.609 L -.641 -6.609 L -.641 -13.102 Z " fill="#69b0dc"/>
<path transform="matrix(1,0,0,-1,172.1151,326.14347)" d="M 0 0 L 12.461 0 L 12.461 -1.901 L 7.261 -1.901 L 7.261 -14.938 L 5.115 -14.938 L 5.115 -1.901 L 0 -1.901 Z " fill="#69b0dc"/>
<path transform="matrix(1,0,0,-1,193.9354,327.98039)" d="M 0 0 C -1.678 0 -3.065 -.541 -4.161 -1.623 C -5.256 -2.705 -5.803 -4.068 -5.803 -5.713 C -5.803 -7.314 -5.252 -8.647 -4.15 -9.711 C -3.047 -10.775 -1.664 -11.308 0 -11.308 C 1.643 -11.308 3.026 -10.763 4.15 -9.674 C 5.273 -8.585 5.835 -7.243 5.835 -5.648 C 5.835 -4.019 5.284 -2.669 4.182 -1.602 C 3.079 -.534 1.686 0 0 0 M 7.693 -14.041 L 5.549 -16.123 C 4.88 -16.088 4.181 -15.969 3.452 -15.766 C 2.723 -15.563 1.983 -15.283 1.233 -14.928 C .482 -14.571 -.519 -13.963 -1.771 -13.102 C -3.585 -12.774 -5.081 -11.913 -6.258 -10.518 C -7.436 -9.122 -8.024 -7.514 -8.024 -5.691 C -8.024 -3.463 -7.267 -1.619 -5.751 -.16 C -4.236 1.299 -2.319 2.028 0 2.028 C 2.305 2.028 4.22 1.305 5.746 -.145 C 7.272 -1.593 8.035 -3.413 8.035 -5.605 C 8.035 -7.449 7.458 -9.069 6.306 -10.464 C 5.154 -11.859 3.663 -12.738 1.835 -13.102 L 2.4 -13.315 C 4.158 -13.991 5.424 -14.329 6.199 -14.329 C 6.626 -14.329 7.124 -14.233 7.693 -14.041 " fill="#69b0dc"/>
<path transform="matrix(1,0,0,-1,212.4974,334.76069)" d="M 0 0 L -2.407 5.403 L -4.639 0 Z M -3.138 8.681 L -1.637 8.681 L 5.052 -6.321 L 2.866 -6.321 L .878 -1.9 L -5.486 -1.9 L -7.35 -6.321 L -9.545 -6.321 Z " fill="#69b0dc"/>
<path transform="matrix(1,0,0,-1,227.0834,334.76069)" d="M 0 0 L -2.407 5.403 L -4.639 0 Z M -3.138 8.681 L -1.637 8.681 L 5.052 -6.321 L 2.866 -6.321 L .878 -1.9 L -5.486 -1.9 L -7.35 -6.321 L -9.545 -6.321 Z " fill="#69b0dc"/>
</g>
</g>
</g>
</svg>
